<mxfile host="app.diagrams.net" modified="2024-02-19T13:05:50.458Z" agent="Mozilla/5.0 (Windows NT 10.0; Win64; x64) AppleWebKit/537.36 (KHTML, like Gecko) Chrome/119.0.0.0 Safari/537.36" version="23.1.5" etag="eF6w31ZcWtripBtF0yqQ" type="github">
  <diagram name="PÃ¡gina-1" id="xthbbM5y6oKVb1LiBfLN">
    <mxGraphModel>
      <root>
        <mxCell id="0" />
        <mxCell id="1" parent="0" />
      </root>
    </mxGraphModel>
  </diagram>
</mxfile>
